<svg xmlns="http://www.w3.org/2000/svg" width="1364" height="392" viewBox="0 0 1364 392">
  <g fill="#FFF">
    <path d="M723 217.26C724 204.26 716 193.26 716 194.26 721 221.26 706 231.26 705 231.26 698 225.26 688 231.26 688 231.26 700 232.26 700 240.26 700 240.26 700 240.26 673.81 296.38 653 273.26 644 263.26 675 197.26 675 195.26 692 188.26 686 168.26 685 170.26 683 184.26 676 183.26 676 181.26 674 163.26 645 143.26 646 144.26 670 168.26 663 191.26 663 191.26 654 185.26 642 197.26 642 197.26 659 190.26 660 198.26 660 198.26 660 198.26 642 257.26 627 261.26 610 246.26 594 222.26 594 222.26 624 210.26 611 185.26 611 185.26 612 207.26 592 208.26 592 209.26 576 192.26 584 181.26 584 181.26 573 187.26 576 197.26 576 197.26 568 191.26 533 197.26 533 197.26 567 198.26 574 214.26 573 214.26 564 213.26 539 220.26 539 220.26 585 218.26 600 248.26 600 248.26 591 247.26 586 260.26 586 260.26 586 260.26 605.41 240.86 626.77 287.13 622.67 289.94 609.07 298.29 599 293.26 587 287.26 589 278.26 589 278.26 587.339754 283.442417 588.474228 289.114787 592 293.26 592 293.26 580 291.26 570 305.26 570 305.26 583 295.26 598 298.26 613 301.26 628.1 295.26 631 297.26 632 299.78 633 302.43 634 305.26 654.88 365.26 602 361.26 602 361.26 639.41 375.54 703.17 344.45 703 344.26 660 359.26 656 293.26 656 292.26 688 296.26 690.17 276.82 705 255.26 716 239.26 729 247.26 729 246.26 722 234.26 710 244.26 711 243.26 720.32 218.1 736.58 219.86 737.94 220.26 728 212.29 723 219.25 723 217.26zM631 297.11C630.995909 297.153237 630.995909 297.196763 631 297.24 630.995967 297.19676 630.995967 297.15324 631 297.11zM737.94 220.21L738 220.21C738.07 220.26 738 220.24 737.94 220.21zM733 246.26C733 246.26 727 254.26 733 258.26 739 262.26 740 259.26 744 264.26 745 264.26 745 257.26 741 250.26 737 243.26 733 246.26 733 246.26zM741 220.26C741 220.26 743 213.26 750 214.26 757 215.26 754 224.26 760 225.26 761 225.26 751 230.26 746 225.26L741 220.26zM716 190.26C716 190.26 706 186.26 706 177.26 706 168.26 716 172.26 716 163.26 717 163.26 719 176.26 718 181.26 717 186.26 716 190.26 716 190.26z"/>
    <path d="M686 232.26C686 232.26 683 226.26 678 227.26 673 228.26 673 239.26 668 240.26 668 241.26 679 242.26 682 240.26 685 238.26 686 232.26 686 232.26zM712 194.26C712 194.26 710 189.26 702 190.26 694 191.26 696 196.26 691 198.26 691 198.26 702 204.26 708 201.26 714 198.26 712 194.26 712 194.26zM721 193.26C721 193.26 722 185.26 729 184.26 736 183.26 738 190.26 743 188.26 743 188.26 735 197.26 728 196.26 720.46 195.18 721 193.26 721 193.26zM643 142.26C643 142.26 649 137.26 643 128.26 637 119.26 633 126.26 628 119.26 628 119.26 625 135.26 631 139.26 634.523592 141.638156 638.771816 142.700212 643 142.26zM685 167.26C685 167.26 691 167.26 693 162.26 695 157.26 689 153.26 691 149.26 691 149.26 686 154.26 685 158.26 684.43795 161.233675 684.43795 164.286325 685 167.26L685 167.26zM641 198.26C641 198.26 645 205.26 643 209.26 641 213.26 635 218.26 637 221.26 637 221.26 629 209.26 633 203.26 637 197.26 641 198.26 641 198.26zM649 141.26C649 141.26 656 141.26 659 135.26 662 129.26 660 126.26 660 126.26 660 126.26 668 136.26 661 141.26 656 145.26 649 141.26 649 141.26zM644 146.26C644 146.26 636 151.26 637 157.26 638 163.26 644 163.26 640 169.26 640 169.26 648 160.26 648 154.26 648 148.26 644 146.26 644 146.26zM611 182.26C611 182.26 617 177.26 615 171.26 613 165.26 605 167.26 605 160.26 605 160.26 602 172.26 605 177.26 608 182.26 611 182.26 611 182.26zM613 184.26L618 179.26C622 175.26 623 169.26 623 169.26 623.105378 173.113899 624.134192 176.886218 626 180.26 629.09 185.4 623 191.26 613 184.26zM586 179.26C586 179.26 595 178.26 596 172.26 597 166.26 589 164.26 592 159.26 592 159.26 580 169.26 586 179.26zM583 179.26C583 179.26 580 173.26 581 169.26 582 165.26 575 159.26 575 159.26 575 159.26 568 173.26 583 179.26zM533 194.26C533 194.26 541 192.26 542 187.26 543 182.26 536 178.26 540 173.26 540 173.26 527 178.26 533 194.26zM530 195.26C530 195.26 531 189.26 525 184.26 519 179.26 514 185.26 510 179.26 510 178.26 513 198.26 530 195.26zM531 199.26C531 199.26 524 196.26 519 201.26 514 206.26 520 208.26 514 213.26 514 213.26 533 211.26 531 199.26zM537 221.26C537 221.26 531 215.26 526 219.26 521 223.26 524 229.26 520 231.26 520 231.26 532 230.26 535 227.26 538 224.26 537 221.26 537 221.26zM583.1 260.53C583.1 260.53 583.54 255.16 580.1 254.14 576.66 253.12 571.28 252.67 570.76 247.6 570.74 247.6 568.7 268.12 583.1 260.53zM590 277.26C590 277.26 591 272.26 596 271.26 601 270.26 601 275.26 606 274.26 606 274.26 597 285.26 590 277.26zM588 277.26C588 277.26 589 272.26 585 270.26 581 268.26 574 273.26 569 268.26 569 268.26 574 276.26 578 277.26 582 278.26 588 277.26 588 277.26zM567 304.26C567 304.26 569 299.26 565 296.26 561 293.26 557 296.26 556 290.26 556 290.26 555 307.26 567 304.26zM568 307.26C565.17094 306.021268 562.031975 305.672494 559 306.26 554 307.26 558 312.26 553 315.26 553 315.26 568 315.26 568 307.26zM570 308.26C570 308.26 575 307.26 578 311.26 581 315.26 577 317.26 580 321.26 573.990926 319.869157 569.802948 314.424786 570 308.26L570 308.26z"/>
    <path d="M66 29.26C96.81 41.58 67.2 53.44 123 50.26 178.8 47.08 194.9 66.46 167 67.26 139.1 68.06 90.05 68.5 114 75.65 137.95 82.8 255.09 53.81 297 68.26 387 99.26 350 41.26 322 49.26 288.57 58.81 179.1 45.62 217.59 35.93 256.08 26.24 235 7.66 257 15.26 286 25.26 291.14-8.87 238 2.26 184.86 13.39 187 47.05 141.86 31.16 96.72 15.27-15.57-3.38 66 29.26zM989 52.26C965.45 50.69 988 59.26 1007 78.26 1026 97.26 929 93.26 938 65.26 947 37.26 872 43.26 909 62.26 946 81.26 932 106.26 899 110.26 866 114.26 867 125.26 922 129.26 977 133.26 916 103.26 960 102.26 1004 101.26 1005 147.26 1081 150.26 1157 153.26 1095 145.26 1063 129.26 1031 113.26 1017 100.26 1049 90.26 1081 80.26 1056 34.26 1117 33.26 1178 32.26 1160 26.26 1117 10.26 1074-5.74 1058 92.26 1033 52.26 1008 12.26 1019 54.26 989 52.26z" opacity=".15"/>
    <path d="M205.79,243.19 C208.445138,242.547213 210.989724,241.512527 213.34,240.12 C213.34,240.12 210.1,245.24 212.26,247.29 C214.42,249.34 217.65,244.22 217.65,244.22 C217.65,244.22 218.73,249.33 224.12,247.29 C228.43,245.29 227.35,242.17 227.35,242.17 C231.66,243.17 235.97,249.33 240.28,249.33 C244.59,249.33 248.91,241.15 248.91,241.15 C248.91,244.22 254.3,251.38 256.45,251.38 C258.6,251.38 258.61,249.38 260.76,247.29 C262.91,245.2 262,243.29 262,243.29 C263.725652,242.706446 265.631535,243.087623 267,244.29 C269.16,246.29 270.46,250.39 270.46,250.39 C274.8,248.74 272.93,241.28 272.04,238.39 C246.56,211.26 237.04,178.64 237.04,179.26 C228.401419,202.503049 216.545971,224.419807 201.82,244.37 C203.09759,243.836564 204.428459,243.440991 205.79,243.19 L205.79,243.19 Z"/>
    <path d="M775 333.26C702 332.26 673 367.26 574 361.26 475.18 355.26 443 256.26 443 256.26 443 256.26 412.56 281.86 339 273.26 325.568325 271.726152 312.570647 267.560099 300.75 261 292.97 260 285.75 256.81 283 252.25 281.77 250.25 277.08 247.18 276 250.25 275 253.16 269.39 254.44 269.39 254.44 269.39 254.44 268.31 250.35 265.08 250.35 260.63 250.35 259.69 254.44 257.53 259.56 252.14 270.82 259.69 276.96 259.69 276.96 259.69 276.96 250.69 271.78 252.14 264.68 253.77 256.92 250.46 252.11 248.75 250.23 248.08822 249.499394 246.963474 249.43271 246.22 250.08 245.41 250.85 244.6 252.38 244.6 255.47 244.6 262.71 234.89 271.85 234.89 272.87 233.82 267.75 239.21 265.7 239.21 258.54 239.300745 255.884113 237.981146 253.378017 235.74 251.95 233.625985 250.583371 230.853979 250.826385 229.01 252.54 222.82 258.37 227.35 257.54 224.12 262.63 214.54 277.79 226.27 289.25 226.27 289.25 226.27 289.25 215.49 283.11 218.73 270.82 220.8 262.94 219.33 257.17 218 254.04 217.762752 253.534642 217.286051 253.183526 216.733067 253.106835 216.180082 253.030144 215.625821 253.23828 215.26 253.66 212.57 256.73 206.49 259.53 200.4 263.66 195.882435 266.780449 192.783433 271.561971 191.78 276.96 191.78 276.96 192.86 263.66 200.4 258.54 207.94 253.42 202.56 247.28 199.32 251.37 197.426168 253.536954 195.09507 255.278461 192.48 256.48 118.26 348.55 0 392.26 0 392.26L1039 392.26C870 392.26 848 334.26 775 333.26zM1090.35 392.26C1090.35 392.26 1061.35 390.99 1055 361.96 1055 361.96 1095.4 375.84 1154.74 373.32 1214.08 370.8 1257 362 1257 362 1257 362 1255.74 388.51 1228 392.3L1090.35 392.26z"/>
    <circle cx="854" cy="275.26" r="2"/>
    <path d="M875 323.26C867 313.26 859 317.26 859 295.26 859 295.26 872 297.26 876 291.26 882.47 281.55 871 276.26 871 276.26 871 276.26 879 288.26 867 289.26 855 290.26 855 285.26 855 285.26 856.50407 284.55662 857.776962 283.439805 858.67 282.04L858.27 282.19C856.119215 283.010701 853.730336 282.942344 851.63 282 851.455782 281.931577 851.33437 281.77158 851.315365 281.585375 851.296361 281.39917 851.382946 281.217944 851.539749 281.115735 851.696551 281.013527 851.897307 281.007455 852.06 281.1 855.59 282.8 859.29 280.65 859.33 280.63L859.39 280.63C859.802303 279.561661 860.009259 278.425101 860 277.28 860 269.81 856.93 266.42 849.5 267.15 838 268.28 839 280.28 846 285.28 846 285.28 830 284.28 826 290.28 820.77 298.13 831 308.28 831 308.28 831 308.28 825.78 294.62 834 292.28 841 290.28 843 292.28 845 297.28 849 307.28 852.31 324.28 846 331.28 840.857584 337.138697 834.323661 341.609276 827 344.28 827 344.28 844 345.28 851 335.28 854.548866 330.193649 856.938391 324.390516 858 318.28 858 318.28 861.81 318.19 869 326.28 877 335.28 870 344.28 870 344.28 870 344.28 884 335.26 875 323.26zM850 275.26C850 273.050861 851.790861 271.26 854 271.26 856.209139 271.26 858 273.050861 858 275.26 858 277.469139 856.209139 279.26 854 279.26 851.790861 279.26 850 277.469139 850 275.26zM1071 348.26C1074.5 347.38 1079 354.26 1076 355.26 1073 356.26 1075 353.26 1071 355.26 1067 357.26 1021 374.26 1017 378.26 1013 382.26 1019 381.26 1016 385.26 1013 389.26 1000 395.26 997 394.26 994 393.26 990 389.26 991 386.26 992 383.26 1007 373.26 1011 375.26 1015 377.26 1013 378.26 1016 375.26 1019 372.26 1062 355.26 1068 352.26 1072 350.26 1067 349.26 1071 348.26zM915.45 377.77C915.496682 377.937922 915.556878 378.101791 915.63 378.26 915.75 378.26 915.66 378.08 915.45 377.77zM942 373.26C948.72 367.88 946 362.26 946 362.26 946 362.26 945 369.26 939 369.26 926.83 369.26 922 360.26 923 358.26 924 356.26 928 350.26 928 350.26L921 353.26C919.45514 351.781157 917.781889 350.442557 916 349.26 913 347.26 908 351.26 908 351.26L918 361.26 906 354.26C905.439109 355.669688 905.841713 357.280107 907 358.26 909 360.26 915.48 361.54 913 365.26 909.63 370.31 914.33 376.07 915.45 377.77 915.22099 376.842731 915.342049 375.863572 915.79 375.02 916.092179 374.291536 916.794235 373.808667 917.582591 373.787068 918.370947 373.765469 919.098388 374.209174 919.44 374.92L922.44 380.5C922.44 380.5 920.99 374.26 926.99 374.26 930.99 374.26 933.26 382.59 933.26 382.59 933.26 382.59 931.99 378.26 934.99 378.26 937.23 378.26 942.3 384.69 942.3 384.69 942.3 384.69 937 377.26 942 373.26zM917 357.26C915.343146 357.26 914 355.916854 914 354.26 914 352.603146 915.343146 351.26 917 351.26 918.656854 351.26 920 352.603146 920 354.26 920 355.916854 918.656854 357.26 917 357.26L917 357.26z"/>
    <circle cx="917" cy="354.26" r="1.5"/>
    <path d="M1323.31 392.26C1323.31 392.26 1321.38 387.45 1318.5 388.41 1315.62 389.37 1313.68 386 1316.09 385.52 1318.5 385.04 1318.01 387.45 1321.38 387.45 1324.75 387.45 1323.31 386 1321.86 385.52 1320.41 385.04 1320.42 381.67 1321.38 383.11 1322.34 384.55 1323.79 386.96 1324.75 386 1325.71 385.04 1322.83 381.19 1319.94 381.19 1317.05 381.19 1319.46 378.78 1320.42 379.75 1321.33266 380.81082 1322.48907 381.634375 1323.79 382.15 1325.23 382.63 1323.79 379.75 1326.2 379.26 1328.61 378.77 1327.2 381.19 1325.71 380.71 1324.22 380.23 1324.71 385.52 1327.16 385.52 1329.61 385.52 1328.6 382.63 1330.53 382.63 1332.46 382.63 1330.04 383.11 1330.04 384.08 1330.04 385.05 1329.04 387.45 1331.49 387.45 1332.49532 387.393007 1333.40094 386.823784 1333.88822 385.942612 1334.37551 385.06144 1334.37618 383.991783 1333.89 383.11 1332.89 381.67 1335.82 381.19 1335.82 382.11 1335.82 383.03 1336.82 385.96 1334.38 387.41 1331.94 388.86 1332.45 389.81 1333.38 390.77 1334.31 391.73 1337.71 388.85 1337.23 386.92 1336.75 384.99 1340.12 385.48 1339.16 387.41 1338.2 389.34 1336.27 390.29 1336.27 390.77 1336.27 391.25 1334.83 392.22 1333.38 392.22L1323.31 392.26zM1311.87 387.14C1311.87 387.14 1308.72 386.14 1308.93 387.57 1309.14 389 1311.87 387.14 1311.87 387.14zM1341.47 389.26C1341.47 389.26 1344.71 386.99 1344.77 388.51 1344.83 390.03 1342.64 388.3 1341.47 389.26zM1338.73 382.78C1338.73 382.78 1340.48 377.98 1341.14 379.78 1341.8 381.58 1340.22 380 1338.73 382.78zM1316 382.26C1315.39824 381.664566 1315.00832 380.888244 1314.89 380.05 1314.89 378.94 1313.42 378.94 1313.79 380.41 1314.16 381.88 1314.89 381.52 1316 382.26z"/>
    <circle cx="1352" cy="359.26" r="1.5"/>
    <path d="M1353,364.26 C1355.82011,362.146282 1359.13622,360.792978 1362.63,360.33 C1361.26,357.49 1356.99,354.67 1350,355.26 C1338,356.26 1335,368.26 1331,370.26 C1327,372.26 1324,377.26 1324,377.26 C1324,377.26 1328,373.26 1331,375.26 C1334,377.26 1336,378.26 1339,376.26 C1339,376.26 1331,375.26 1333,371.26 C1335,367.26 1337.79,367.26 1345,367.26 C1350,367.26 1356,367.26 1361,365.26 C1362.10903,364.876163 1362.90886,363.902459 1363.07,362.74 C1361.44,362.26 1358.44,362.28 1353,364.26 Z M1349,359.26 C1349,357.603146 1350.34315,356.26 1352,356.26 C1353.65685,356.26 1355,357.603146 1355,359.26 C1355,360.916854 1353.65685,362.26 1352,362.26 C1350.34315,362.26 1349,360.916854 1349,359.26 Z"/>
    <path d="M1344,352.26 C1340,352.26 1335,356.26 1335,356.26 C1335.47584,356.152676 1335.96221,356.099008 1336.45,356.1 C1336.45,356.1 1339,354.26 1341,354.26 C1341,354.26 1338.49,355.26 1337.75,356.26 L1337.75,356.26 C1338.18567,356.361694 1338.59691,356.54862 1338.96,356.81 C1339.47304,356.422886 1340.1089,356.234616 1340.75,356.28 C1340.23376,356.492667 1339.74923,356.775315 1339.31,357.12 C1339.6267,357.444155 1339.86301,357.838019 1340,358.27 C1340,358.27 1342,355.27 1348,354.27 C1348,354.26 1348,352.26 1344,352.26 Z"/>
  </g>
</svg>
